# xmcd CD database file
#
# Track frame offsets:
#	150
#	15984
#	29189
#	44227
#	55595
#	70422
#	81853
#	96882
#	129987
#	144050
#	156723
#	178594
#
# Disc length: 2536 seconds
#
# Revision: 0
# Processed by: cddbd v1.5.2PL0 Copyright (c) Steve Scherf et al.
# Submitted via: CDex 1.70beta2
#
DISCID=a509e60c
DTITLE=Duke Ellington - Will Big Bands Ever Come Back
DYEAR=1965
DGENRE=Jazz
TTITLE0=Tuxedo Junction
TTITLE1=Smoke Rings
TTITLE2=Artistry In Rhythm
TTITLE3=The Waltz You Saved For Me
TTITLE4=Woodchopper's Ball
TTITLE5=Sentimental Journey
TTITLE6=When It's Sleepy Time Down South
TTITLE7=One O'clock Jump
TTITLE8=Goodbye
TTITLE9=Sleep, Sleep, Sleep
TTITLE10=Rhapsody In Blue
TTITLE11=Don't Get Around Much Anymore
EXTD=YEAR: 1965
EXTT0=
EXTT1=
EXTT2=
EXTT3=
EXTT4=
EXTT5=
EXTT6=
EXTT7=
EXTT8=
EXTT9=
EXTT10=
EXTT11=
PLAYORDER=
